<svg viewBox="0 0 24 24" fill="none" xmlns="http://www.w3.org/2000/svg">
    <path d="M23 12C23 18.0751 18.0751 23 12 23C5.92487 23 1 18.0751 1 12C1 5.92487 5.92487 1 12 1C18.0751 1 23 5.92487 23 12Z"
          stroke="currentColor"/>
    <path d="M13 10C13 11.6569 11.6569 13 10 13C8.34315 13 7 11.6569 7 10C7 8.34315 8.34315 7 10 7C11.6569 7 13 8.34315 13 10Z"
          stroke="currentColor"/>
    <path d="M19 12.5C19 13.3284 18.3284 14 17.5 14C16.6716 14 16 13.3284 16 12.5C16 11.6716 16.6716 11 17.5 11C18.3284 11 19 11.6716 19 12.5Z"
          stroke="currentColor"/>
    <path d="M14 17.5C14 18.3284 13.3284 19 12.5 19C11.6716 19 11 18.3284 11 17.5C11 16.6716 11.6716 16 12.5 16C13.3284 16 14 16.6716 14 17.5Z"
          stroke="currentColor"/>
</svg>
