<svg viewBox="0 0 24 24" fill="none" xmlns="http://www.w3.org/2000/svg">
    <path d="M8.55655 2V3.5C8.55655 4.60457 7.65119 5.50121 6.57968 5.76941C5.71407 5.98608 4.87508 6.30618 4.15685 6.62646C2.79012 7.23591 2.08328 8.69245 2.21585 10.183L3.00001 19M15.5 2V3.5C15.5 4.60457 16.4056 5.5006 17.4766 5.77104C18.3326 5.98721 19.1595 6.30561 19.8669 6.62439C21.2217 7.23491 21.9176 8.68304 21.7859 10.1632L21 19M6.50001 11C6.50001 12.5 6.50001 16.5 10.5 16.5M7.50001 15.5C7.50001 17 8.00001 20 6.50001 22M17.5 11C17.5 12.5 17.5 16.5 13.5 16.5M16.5 15.5C16.5 17 16 20 17.5 22"
          stroke="currentColor"/>
</svg>
