<svg width="26" height="46" viewBox="0 0 26 46" fill="none" xmlns="http://www.w3.org/2000/svg">
<path d="M19.7937 33.2916C19.5407 33.5447 19.4142 33.9242 19.4142 34.3038C17.8959 34.6834 16.5042 34.8099 14.9859 34.9364C16.6307 33.7977 18.1489 32.5325 19.5407 31.1407C19.6672 31.2673 19.9203 31.3938 20.1733 31.3938C20.9324 31.5203 21.8181 31.0142 21.9446 30.2551C22.0711 29.4959 21.5651 28.7368 20.6794 28.4838C19.9203 28.3572 19.0346 28.8633 18.9081 29.6225C18.7816 30.1285 18.9081 30.5081 19.2876 30.8877C17.2633 32.659 15.1124 34.4303 12.835 35.9486C13.5941 34.0507 14.6063 32.2794 15.745 30.6346C15.745 30.6346 15.745 30.6346 15.8715 30.6346C16.6307 30.7612 17.5163 30.2551 17.6429 29.4959C17.7694 28.7368 17.2633 27.9777 16.3776 27.7246C15.492 27.4716 14.7328 28.1042 14.6063 28.8633C14.4798 29.4959 14.8594 30.1285 15.3655 30.3816C14.1002 32.2794 13.088 34.3038 12.2024 36.3281C10.3046 37.5934 8.40672 38.7321 6.38236 39.7443C6.76192 39.2382 7.26801 38.7321 7.64758 38.0995C8.53324 37.8464 9.29237 37.0873 9.79846 36.2016C10.3046 35.316 10.5576 34.1773 10.5576 33.1651C9.79846 33.2916 9.16585 33.6712 8.65976 34.1773C7.90063 35.0629 7.39454 36.4547 7.26801 37.7199C6.6354 38.6056 6.00279 39.4912 5.24365 40.2503C4.48452 40.6299 3.72538 41.0095 2.83973 41.389C5.74974 37.0873 8.15367 32.659 10.3046 27.9777C11.3167 27.092 12.3289 26.3329 13.4676 25.7003C15.1124 25.8268 16.7572 25.7003 18.402 25.4472C20.1733 25.1942 21.9446 24.6881 23.4629 23.6759C24.222 23.1698 24.9812 22.5372 25.6138 21.7781C24.222 20.7659 22.5772 20.5128 20.9324 20.7659C19.4142 21.0189 17.8959 21.6515 16.6307 22.4107C15.492 23.1698 14.4798 24.182 13.4676 25.1942C12.4554 25.7003 11.5698 26.3329 10.8106 27.092C11.6963 24.9411 12.582 22.7902 13.3411 20.6394C14.3533 19.8802 15.3654 19.1211 16.3776 18.2354C16.6307 18.2354 16.8837 18.2354 17.1368 18.2354C17.8959 18.2354 18.655 18.1089 19.5407 17.8559C20.2998 17.6028 20.9324 17.3498 21.5651 17.0967C21.5651 17.2233 21.6916 17.2233 21.6916 17.2233C22.3242 17.7293 23.2098 17.7293 23.8425 17.0967C24.3485 16.4641 24.222 15.5785 23.5894 14.9459C22.9568 14.3132 22.0711 14.4398 21.4385 15.0724C21.059 15.5785 21.059 16.0846 21.1855 16.7172C20.5529 16.9702 19.9203 17.2233 19.2876 17.4763C18.2755 17.7293 17.5163 17.8559 16.6307 17.8559C19.0346 15.705 21.1855 13.4276 23.0833 10.7706C23.8425 11.0237 24.7281 10.5176 24.8546 9.75843C25.1077 8.9993 24.6016 8.11364 23.8425 7.8606C23.0833 7.60755 22.1977 7.98712 21.9446 8.87278C21.8181 9.50539 22.0711 10.2645 22.7038 10.5176C21.1855 12.5419 19.5407 14.4398 17.7694 16.2111C18.2755 14.8193 18.7816 13.3011 19.0346 11.9093C19.1611 11.9093 19.2876 11.9093 19.2876 11.9093C20.0468 12.0358 20.8059 11.4032 20.8059 10.6441C20.8059 9.88495 20.2998 9.12582 19.5407 9.12582C18.7816 8.9993 18.0224 9.63191 18.0224 10.391C18.0224 10.8971 18.2755 11.4032 18.655 11.6563C18.2755 13.4276 17.7694 15.1989 17.0102 16.8437C15.8715 17.8559 14.7328 18.868 13.4676 19.8802C14.1002 17.9824 14.7328 15.958 15.2389 13.9337C16.7572 11.7828 17.8959 9.37886 18.9081 6.84842C19.0346 6.84842 19.0346 6.84842 19.1611 6.84842C19.9203 6.97494 20.6794 6.34233 20.6794 5.58319C20.8059 4.82406 20.1733 4.06492 19.4142 4.06492C18.655 3.9384 17.8959 4.57101 17.8959 5.33015C17.8959 5.83624 18.1489 6.34233 18.5285 6.72189C17.7694 8.74625 16.7572 10.7706 15.6185 12.6684C16.3776 9.37886 17.0102 6.2158 17.3898 2.7997C18.1489 2.7997 18.7816 2.29361 18.7816 1.53447C18.9081 0.775337 18.2755 0.0162019 17.5163 0.0162019C16.7572 -0.110321 15.9981 0.522292 15.9981 1.28143C15.9981 1.91404 16.3776 2.54665 17.0102 2.7997C16.7572 4.82406 16.5042 6.72189 16.1246 8.61973C15.9981 7.8606 15.745 6.97494 15.492 6.2158C15.6185 6.2158 15.6185 6.2158 15.745 6.08928C16.5042 5.70971 16.7572 4.82406 16.3776 4.19144C15.9981 3.55883 15.1124 3.17926 14.4798 3.55883C13.8472 3.9384 13.4676 4.82406 13.8472 5.45667C14.1002 5.96276 14.6063 6.2158 15.1124 6.2158C15.492 7.35451 15.745 8.49321 15.8715 9.63191C15.6185 11.0237 15.2389 12.4154 14.8594 13.6806C14.6063 14.6928 14.3533 15.5785 14.1002 16.5906C14.1002 15.705 14.1002 14.8193 13.9737 13.8072C14.3533 12.9215 14.3533 12.0358 14.1002 11.1502C13.8472 10.138 13.2146 9.25234 12.582 8.36668C12.0759 8.87278 11.9493 9.63191 11.9493 10.391C12.0759 11.6563 12.7085 13.048 13.4676 14.0602C13.5941 15.4519 13.5941 16.7172 13.4676 18.1089C13.4676 18.1089 13.4676 18.1089 13.4676 18.2354C12.835 20.3863 12.0759 22.4107 11.1902 24.5616C11.3167 22.4107 11.3167 20.2598 10.9372 18.1089C11.1902 17.3498 11.1902 16.5906 11.0637 15.8315C10.8106 12.2889 8.9128 8.9993 6.00279 6.97494C6.00279 8.61973 6.00279 10.138 6.25583 11.6563C6.76192 14.4398 8.28019 16.8437 10.5576 18.362C10.9372 20.8924 10.9372 23.2963 10.6841 25.8268C10.4311 26.4594 10.178 27.092 9.92498 27.5981C9.03933 29.6225 8.02715 31.6468 7.01497 33.5447C7.26801 31.6468 7.39454 29.6225 7.39454 27.5981C8.02715 25.8268 8.65976 23.9289 9.16585 22.1576H9.29237C10.0515 22.2842 10.8106 21.6515 10.8106 20.8924C10.9372 20.1333 10.3046 19.3741 9.54542 19.3741C8.78628 19.3741 8.02715 19.8802 8.02715 20.6394C8.02715 21.272 8.28019 21.7781 8.78628 22.0311C8.40671 23.5494 7.90063 25.0677 7.39454 26.5859C7.26801 23.4229 6.76192 20.1333 5.87627 17.0967C6.25583 16.9702 6.6354 16.5906 6.76192 16.0846C7.01497 15.3254 6.50888 14.5663 5.74974 14.3132C4.99061 14.0602 4.23147 14.5663 3.97843 15.3254C3.72538 16.0846 4.23147 16.8437 4.99061 17.0967C5.11713 17.0967 5.37018 17.0967 5.4967 17.0967C6.25583 19.5007 6.6354 21.9046 6.88845 24.435C5.62322 22.7902 4.10495 21.272 2.58668 19.7537C2.83973 19.6272 3.09277 19.2476 3.09277 18.9946C3.34582 18.2354 2.83973 17.4763 2.08059 17.2233C1.32146 16.9702 0.562322 17.4763 0.309277 18.2354C0.056232 18.9946 0.562322 20.0068 1.32146 20.2598C1.5745 20.3863 1.82755 20.2598 2.08059 20.2598C3.85191 21.9046 5.37018 23.5494 6.88845 25.4472C7.14149 28.6103 7.01497 31.7733 6.38236 34.8099C5.74974 35.9486 5.11713 37.0873 4.358 38.0995C4.73756 36.4547 4.86409 34.6834 4.86409 32.912C5.74974 30.7612 5.62322 28.2307 4.73756 26.0798C3.85191 23.8024 2.20711 22.0311 0.4358 20.3863C0.94189 23.1698 1.06841 26.0798 1.95407 28.8633C2.20711 29.6225 2.58668 30.3816 2.96625 31.1407C3.34582 31.8999 3.97843 32.5325 4.73756 33.1651C4.73756 35.316 4.48452 37.4669 3.97843 39.3647C2.7132 41.2625 1.44798 43.1604 0.0562322 44.9317C-0.0702903 45.0582 0.0562322 45.1847 0.0562322 45.1847H0.182755C0.182755 45.1847 0.309277 45.1847 0.309277 45.0582C1.06841 44.046 1.82755 43.0338 2.58668 41.8951C3.47234 41.5156 4.48452 41.136 5.37018 40.6299C6.50888 40.7564 7.52106 40.883 8.65976 41.0095C9.67194 41.6421 10.8106 42.1482 11.9493 42.1482C13.3411 42.2747 14.6063 42.0217 15.8715 41.389C14.4798 40.1238 12.7085 39.3647 10.9372 39.4912C10.0515 39.6177 9.16585 39.9973 8.53324 40.5034C7.64758 40.5034 6.76192 40.3769 6.00279 40.2503C8.15367 39.2382 10.178 37.9729 12.3289 36.5812C12.4554 36.5812 12.4554 36.5812 12.4554 36.4547C13.088 35.9486 13.7207 35.569 14.3533 35.0629H14.4798C16.1246 35.0629 17.7694 34.8099 19.4142 34.4303C19.5407 34.6834 19.6672 34.9364 19.7937 35.1894C20.4263 35.8221 21.312 35.8221 21.8181 35.1894C22.3242 34.5568 22.3242 33.6712 21.8181 33.0386C21.312 32.659 20.4263 32.659 19.7937 33.2916Z" fill="currentColor"/>
</svg>
