<svg width="46" height="46" viewBox="0 0 46 46" fill="none" xmlns="http://www.w3.org/2000/svg">
<path d="M35.9325 25.6841C32.0103 24.0393 25.9372 25.3045 24.4189 29.6063C23.9128 30.998 23.6598 32.3898 23.1537 33.7815C23.0272 34.0346 22.5211 34.2876 22.268 34.5407C22.1415 34.1611 21.8885 33.7815 22.015 33.402C23.7863 28.088 24.2924 22.521 24.4189 16.954C24.4189 13.0318 18.8519 11.5136 15.8154 11.2605C15.4358 11.2605 15.0563 11.3871 14.8032 11.7666C11.7667 16.4479 8.73013 21.3823 8.98318 27.3289C9.23622 33.9081 14.4236 37.8302 20.6232 36.8181C19.7376 39.475 18.4724 41.879 17.4602 44.4094C17.3337 44.6625 17.5867 45.042 17.5867 45.4216C17.9663 45.1686 18.5989 45.042 18.7254 44.5359C19.7376 42.0055 20.8763 39.6016 21.8885 37.0711C25.6841 38.5894 30.239 39.0955 33.0224 35.4263C35.0468 32.7693 35.9325 29.7328 36.4386 26.5697C36.6916 26.0637 36.312 25.9371 35.9325 25.6841ZM24.2924 13.0318C24.0393 10.3749 23.7863 7.59138 23.5333 4.9344C23.5333 4.68136 23.7863 4.30179 23.9128 3.92222C24.7985 4.42831 24.7985 5.44049 24.925 6.45267C25.4311 13.1584 26.0637 19.7375 25.1781 26.4432C28.7207 23.6597 32.5164 23.1536 36.8181 24.5454C36.5651 15.1827 32.0103 6.19963 24.4189 0.63264C23.2802 -0.253017 22.3946 0.12655 21.6354 1.26525C19.6111 4.30179 17.8397 7.08529 15.8154 10.1218C19.105 10.3749 21.7619 11.387 24.1659 13.2849C24.2924 13.2849 24.2924 13.1584 24.2924 13.0318Z" fill="currentColor"/>
</svg>
