<svg width="46" height="46" viewBox="0 0 46 46" fill="none" xmlns="http://www.w3.org/2000/svg">
    <path d="M34.1611 29.1002C34.1611 27.2023 33.2755 25.431 33.2755 23.5332C33.2755 22.774 33.5285 22.0149 33.402 21.2558C33.402 21.1292 33.402 21.0027 33.2755 21.0027C33.149 21.0027 33.0224 21.1292 33.0224 21.2558C32.6429 22.521 32.2633 23.7862 31.7572 25.0514C31.3777 26.1901 30.745 27.3288 30.6185 28.5941C30.492 29.8593 30.492 31.1245 31.2511 32.2632C31.3777 32.5163 31.6307 32.6428 31.6307 32.8958C31.7572 33.1489 31.7572 33.4019 31.7572 33.5284C31.7572 34.1611 31.7572 34.7937 31.6307 35.4263C31.6307 35.6793 31.5042 36.0589 31.3777 36.3119C31.3777 36.4385 31.2511 37.0711 30.9981 36.6915C30.9981 36.565 30.8716 36.565 30.8716 36.4385C30.6185 35.6793 30.1124 35.0467 29.7329 34.2876C29.6063 34.0345 29.3533 33.7815 29.2268 33.5284C28.8472 33.0224 28.5942 32.5163 28.2146 32.0102C27.4555 30.998 26.6963 29.9858 25.9372 28.9736C25.4311 28.2145 25.3046 27.4554 25.5576 26.5697C25.5576 26.4432 25.5576 26.3167 25.6841 26.0636C25.8107 25.684 25.8107 25.3045 26.0637 24.9249C26.6963 23.4066 26.8228 21.7618 26.8228 20.1171C26.8228 19.864 26.8228 19.7375 26.8228 19.4844C26.8228 19.1049 26.6963 18.7253 26.5698 18.3457C26.4433 17.8397 26.3168 17.3336 26.1902 16.8275C26.0637 16.3214 25.6841 15.8153 25.9372 15.3092C25.9372 15.1827 26.0637 15.1827 25.9372 15.0562C25.8107 14.8031 25.6841 15.1827 25.6841 15.3092C25.5576 15.5622 25.5576 15.6888 25.5576 15.9418C25.1781 17.0805 24.925 18.2192 24.672 19.3579C24.4189 20.2436 24.2924 21.1292 24.4189 22.1414C24.4189 22.6475 24.5454 23.0271 24.672 23.5332C24.7985 23.9127 25.1781 24.2923 25.3046 24.6719C25.3046 24.9249 25.3046 25.3045 25.3046 25.684C25.3046 26.1901 25.0515 26.8227 24.925 27.3288C24.925 27.4554 24.7985 27.5819 24.672 27.5819C24.4189 27.2023 24.1659 26.9493 23.9128 26.5697C22.9006 25.178 21.7619 23.9127 20.8763 22.3945C20.6232 21.8884 20.3702 21.5088 20.1172 21.0027C19.8641 20.6231 19.4845 20.1171 19.4845 19.7375C19.4845 19.4844 19.6111 19.2314 19.6111 19.1049C19.7376 18.5988 19.9906 18.0927 20.2437 17.7131C20.4967 17.3336 21.0028 16.954 21.2559 16.701C21.6354 16.3214 21.8885 15.8153 22.1415 15.4357C22.6476 14.5501 22.9006 13.5379 22.9006 12.5257C22.9006 11.387 22.7741 10.1218 23.1537 8.98308C22.9006 8.98308 22.6476 9.23612 22.5211 9.48917C22.3946 9.74222 22.3946 9.99526 22.268 10.2483C22.015 11.134 21.1293 11.8931 20.6232 12.6522C19.7376 13.9175 19.4845 15.6888 19.9906 17.207C19.9906 17.3336 20.1172 17.4601 20.1172 17.4601C20.1172 17.5866 19.9906 17.7131 19.9906 17.8397C19.7376 18.2192 19.4845 18.8518 19.358 19.2314C18.5989 17.4601 17.9663 15.1827 17.7132 13.2848C17.7132 13.0318 17.5867 12.6522 17.7132 12.3992C17.7132 12.0196 17.8397 11.7666 18.0928 11.387C18.4724 10.6279 18.8519 9.86874 19.4845 9.23612C19.9906 8.47699 20.7498 7.84438 21.0028 7.08524C21.1293 6.57915 21.1293 6.07306 21.1293 5.56697C21.1293 5.06088 21.1293 4.55479 21.1293 4.0487C20.8763 4.17523 20.7498 4.55479 20.6232 4.80784C19.9906 6.07306 18.3458 6.8322 18.0928 8.22395C17.9663 8.73003 18.0928 9.36265 18.0928 9.99526C18.0928 10.6279 17.9663 11.2605 17.5867 11.5135C17.3337 9.99526 17.2071 8.47699 17.5867 6.95872C17.4602 6.07306 17.7132 5.18741 17.7132 4.42827C17.5867 3.16305 16.8276 2.02434 17.0806 0.75912C17.0806 0.632597 17.0806 0.506075 17.0806 0.379552C17.0806 0.25303 16.9541 0.126507 16.8276 0.25303L16.701 0.379552C15.8154 2.02434 15.5623 4.0487 16.195 5.82002C16.448 6.45263 16.701 6.95872 16.8276 7.59133C16.8276 8.22395 16.701 8.98308 16.8276 9.61569C16.3215 9.36265 16.3215 8.60351 16.3215 8.09742C15.9419 6.32611 14.2971 5.18741 13.9176 3.54261C13.9176 3.41609 13.9176 3.28957 13.791 3.28957C13.6645 3.16305 13.538 3.54261 13.538 3.66914C13.538 5.94654 14.2971 8.22394 16.0684 9.61569C16.195 9.74222 16.448 9.86874 16.5745 10.1218C16.8276 10.5013 16.8276 11.0074 16.8276 11.387C16.8276 12.7788 16.9541 14.044 17.3337 15.4357C16.3215 14.4235 16.0684 12.9053 15.3093 11.6401C14.4236 9.99526 12.9054 8.85656 12.2728 7.08524C12.1462 6.8322 12.0197 6.57915 11.7667 6.57915C11.5136 6.57915 11.3871 6.95872 11.5136 7.33829C11.7667 8.47699 12.0197 9.48917 12.2728 10.6279C12.3993 11.387 12.6523 12.2727 13.0319 12.9053C13.538 13.7909 14.5502 14.5501 15.5623 14.6766C15.8154 14.6766 15.9419 14.6766 16.195 14.8031C16.3215 14.9296 16.448 15.1827 16.5745 15.3092C16.8276 15.5622 17.0806 15.8153 17.3337 16.0683C17.5867 16.3214 17.5867 16.5744 17.7132 16.8275C17.9663 17.4601 18.2193 18.2192 18.4724 18.8518C18.7254 19.611 19.105 20.3701 19.4845 21.1292C19.7376 21.5088 19.9906 21.8884 20.1172 22.3945C20.2437 22.521 20.6232 23.5332 20.7498 23.5332C20.1172 23.5332 19.4845 23.2801 19.105 22.774C18.7254 22.3945 18.5989 21.8884 18.3458 21.3823C18.0928 21.0027 17.8397 20.6231 17.5867 20.2436C17.0806 19.7375 16.5745 19.3579 16.0684 18.9784C15.8154 18.7253 15.5623 18.4723 15.3093 18.2192C14.9297 17.9662 14.4236 17.7131 14.0441 17.4601C13.791 17.3336 13.6645 17.0805 13.538 16.954C13.4115 16.8275 13.2849 16.5744 13.1584 16.4479C12.9054 16.3214 12.7788 16.5744 12.9054 16.701C13.4115 17.9662 13.791 19.2314 14.4236 20.3701C14.9297 21.2558 15.6889 22.1414 16.5745 22.521C16.8276 22.6475 17.0806 22.774 17.3337 22.774C17.4602 22.774 17.5867 22.774 17.7132 22.774C18.4724 22.774 18.8519 23.2801 19.4845 23.5332C19.7376 23.6597 19.9906 23.7862 20.2437 23.7862C20.4967 23.9127 20.8763 23.9127 21.1293 24.0393C21.3824 24.1658 21.6354 24.4188 21.7619 24.6719C22.1415 25.178 22.6476 25.8106 23.0272 26.3167C23.5333 27.0758 24.1659 27.7084 24.672 28.4675C25.4311 29.4797 26.1902 30.3654 26.9494 31.3776C27.3289 31.8836 27.7085 32.3897 27.9615 32.8958C28.3411 33.4019 28.7207 34.0345 28.9737 34.5406C28.7207 34.4141 28.4676 34.4141 28.3411 34.2876C28.0881 34.1611 27.835 34.1611 27.4555 34.0345C26.8228 33.908 26.3168 33.7815 25.6841 33.655C25.5576 33.655 25.4311 33.655 25.3046 33.655C25.1781 33.655 25.0515 33.5284 24.925 33.5284C24.4189 33.2754 24.0394 33.0224 23.6598 32.7693C23.2802 32.3897 23.0272 31.7571 22.9006 31.251C22.6476 30.7449 22.3946 30.1123 22.1415 29.6062C21.6354 28.7206 21.0028 27.9615 20.2437 27.2023C19.4845 26.4432 18.5989 25.8106 17.7132 25.178C17.5867 25.178 17.5867 25.0514 17.4602 25.0514C17.0806 24.9249 17.2071 25.3045 17.3337 25.5575C17.4602 25.8106 17.7132 26.0636 17.8397 26.3167C18.4724 27.0758 18.5989 27.9614 18.9785 28.8471C19.2315 29.4797 19.6111 29.9858 19.9906 30.6184C20.3702 31.1245 20.7498 31.5041 21.1293 32.0102C21.5089 32.3897 22.015 32.8958 22.6476 33.1489C22.3946 33.1489 22.268 33.1489 22.015 33.1489C21.6354 33.1489 21.2559 32.8958 20.8763 32.6428C20.4967 32.3897 20.1172 32.1367 19.6111 31.8836C19.4845 31.8836 19.358 31.7571 19.2315 31.6306C18.4724 31.1245 17.5867 30.4919 16.8276 30.1123C16.3215 29.8593 15.6889 29.7328 15.1828 29.4797C14.9297 29.3532 14.5502 29.1002 14.4236 28.8471C14.2971 28.7206 14.1706 28.5941 14.0441 28.4675C13.9176 28.2145 13.791 28.088 13.6645 27.8349C13.538 27.7084 13.2849 27.5819 13.4115 27.8349C13.6645 28.8471 14.0441 29.8593 14.5502 30.8715C15.3093 32.2632 16.701 33.2754 18.3458 33.655C19.8641 33.908 21.3824 33.2754 22.9006 33.655C23.1537 33.7815 23.2802 33.7815 23.5333 33.908C23.7863 34.0345 23.9128 34.0345 24.1659 34.0345C25.1781 34.2876 26.1902 34.4141 27.2024 34.5406C28.2146 34.6671 29.3533 34.9202 29.7329 35.9324C30.3655 37.0711 30.8716 38.3363 31.2511 39.6015C31.3777 39.8546 31.5042 40.1076 31.5042 40.3607C31.6307 40.9933 31.7572 41.6259 31.8837 42.132C32.0103 42.7646 32.1368 43.3972 32.2633 44.0298C32.3898 44.2829 32.5164 45.5481 33.0224 45.1685C33.149 45.042 33.149 44.7889 33.0224 44.6624C32.8959 44.5359 32.8959 44.1563 32.7694 43.9033C32.6429 43.6502 32.6429 43.2707 32.5164 43.0176C32.2633 42.132 32.2633 41.1198 32.0103 40.2341C31.8837 39.728 31.6307 39.222 31.5042 38.8424C31.3777 38.4628 31.1246 38.0832 30.9981 37.7037C30.9981 37.5772 31.1246 37.4506 31.1246 37.1976C31.1246 36.9445 31.1246 36.818 31.2511 36.565C31.3777 36.1854 31.5042 35.9324 31.6307 35.5528C31.7572 35.1732 31.7572 34.6671 31.8837 34.2876C32.0103 33.908 32.2633 33.4019 32.5164 33.0224C33.0224 31.8836 33.6551 30.7449 33.7816 29.4797C34.1611 29.4797 34.1611 29.3532 34.1611 29.1002Z"
          fill="currentColor"/>
</svg>
