<svg viewBox="0 0 48 48" fill="none" xmlns="http://www.w3.org/2000/svg">
    <path d="M14.8073 22.2328C14.1242 21.7953 13.6237 21.0878 13.7428 20.3501C13.7667 20.2024 13.8554 20.0731 13.9847 19.9978C14.114 19.9225 14.2702 19.909 14.4105 19.9611C16.2287 20.6361 18.2567 20.2174 20.0526 18.5126C20.1764 18.3951 20.3517 18.3488 20.5174 18.39C20.6831 18.4311 20.8163 18.554 20.8707 18.7158C21.1024 19.4046 20.8948 20.3341 20.3905 21.0975C19.8685 21.8877 18.983 22.579 17.737 22.7629C16.5386 22.9399 15.521 22.6899 14.8073 22.2328Z"
          fill="currentColor"/>
    <path d="M32.7541 22.2328C33.4372 21.7953 33.9376 21.0878 33.8186 20.3501C33.7947 20.2024 33.706 20.0731 33.5767 19.9978C33.4474 19.9225 33.2912 19.909 33.1509 19.9611C31.3326 20.6361 29.3047 20.2174 27.5088 18.5126C27.385 18.3951 27.2097 18.3488 27.044 18.39C26.8783 18.4311 26.7451 18.554 26.6906 18.7158C26.4589 19.4046 26.6665 20.3341 27.1709 21.0975C27.6929 21.8877 28.5784 22.579 29.8243 22.7629C31.0228 22.9399 32.0403 22.6899 32.7541 22.2328Z"
          fill="currentColor"/>
    <path fill-rule="evenodd" clip-rule="evenodd"
          d="M33.2582 31C31.5383 27.4383 28.0382 25 24.0001 25C19.962 25 16.4619 27.4383 14.742 31C14.2731 31.9709 15.0583 33 16.1364 33H31.8638C32.9419 33 33.7271 31.9709 33.2582 31ZM24.0001 27C26.8698 27 29.4526 28.5553 30.9779 31H17.0223C18.5476 28.5553 21.1304 27 24.0001 27Z"
          fill="currentColor"/>
    <path fill-rule="evenodd" clip-rule="evenodd"
          d="M42 24C42 33.9411 33.9411 42 24 42C14.0589 42 6 33.9411 6 24C6 14.0589 14.0589 6 24 6C33.9411 6 42 14.0589 42 24ZM40 24C40 32.8366 32.8366 40 24 40C15.1634 40 8 32.8366 8 24C8 15.1634 15.1634 8 24 8C32.8366 8 40 15.1634 40 24Z"
          fill="currentColor"/>
</svg>
