<svg viewBox="0 0 24 24" fill="none" xmlns="http://www.w3.org/2000/svg">
    <path d="M6.48108 21.5C5.9611 20.0508 6.38664 17.6489 7.47476 16.2702C7.85378 15.7899 8.53412 16.0176 8.85217 16.5402C9.89679 18.2567 11.706 19.5 13.8364 19.5C21.3364 19.5 23.8364 6.21429 17.8364 7.5C16.3364 7.82143 14.3364 5.5 14.8364 2.5M3.5 21.5C2.10505 18.428 3.19625 14.3525 5.89224 12.1525C6.44338 11.7028 7.21008 11.734 7.86211 12.0184C10.4513 13.1476 12.3986 12.5724 13.7798 10.82C14.1195 10.389 13.9496 9.77862 13.5315 9.42306C11.6322 7.80758 10.9518 5.15379 11.8364 2.5"
          stroke="currentColor"/>
</svg>
