<svg viewBox="0 0 24 24" fill="none" xmlns="http://www.w3.org/2000/svg">
    <path d="M12 1L13.9314 2.29023L16.2095 1.83733L17.5001 3.76845L19.7782 4.22183L20.2315 6.49986L22.1627 7.79048L21.7098 10.0686L23 12L21.7098 13.9314L22.1627 16.2095L20.2315 17.5001L19.7782 19.7782L17.5001 20.2315L16.2095 22.1627L13.9314 21.7098L12 23L10.0686 21.7098L7.79048 22.1627L6.49986 20.2315L4.22183 19.7782L3.76845 17.5001L1.83733 16.2095L2.29023 13.9314L1 12L2.29023 10.0686L1.83733 7.79048L3.76845 6.49986L4.22183 4.22183L6.49986 3.76845L7.79048 1.83733L10.0686 2.29023L12 1Z"
          stroke="currentColor" stroke-width="1.5" stroke-linecap="round" stroke-linejoin="round"/>
    <path d="M13 10C13 11.6569 11.6569 13 10 13C8.34315 13 7 11.6569 7 10C7 8.34315 8.34315 7 10 7C11.6569 7 13 8.34315 13 10Z"
          stroke="currentColor" stroke-width="1.5" stroke-linecap="round" stroke-linejoin="round"/>
    <path d="M17 15.5C17 16.3284 16.3284 17 15.5 17C14.6716 17 14 16.3284 14 15.5C14 14.6716 14.6716 14 15.5 14C16.3284 14 17 14.6716 17 15.5Z"
          stroke="currentColor" stroke-width="1.5" stroke-linecap="round" stroke-linejoin="round"/>
</svg>
