<svg width="828" height="770" viewBox="0 0 828 770" fill="none" xmlns="http://www.w3.org/2000/svg">
<path d="M378.807 756.051C355.18 732.242 333.248 714.449 300.336 692.393C279.315 678.305 265.065 670.963 251.836 667.408C238.947 663.943 228.678 663.334 216.597 665.318C204.408 667.32 186.355 667.364 178.076 665.412C171.048 663.755 161.592 659.269 155.202 654.56C147.546 648.918 148.325 647.159 160.203 643.263C167.17 640.978 170.057 640.594 180.336 640.583C194.272 640.568 199.225 641.688 217.177 648.913C228.113 653.314 245.836 657.682 245.836 655.976C245.836 654.979 230.105 643.579 222.987 639.417C211.598 632.759 192.565 626.879 177.455 625.352C173.618 624.964 163.801 625.231 155.267 625.955C141.497 627.124 139.083 627.082 131.236 625.54C114.493 622.25 97.5758 612.762 83.8363 598.955C71.6799 586.738 71.2062 584.012 80.6803 580.792C104.228 572.788 135.995 578.139 158.336 593.874C167.764 600.514 180.58 608.917 181.278 608.917C181.627 608.917 177.935 605.607 173.074 601.562C163.608 593.683 154.502 583.976 145.263 571.917C131.691 554.201 123.481 546.448 102.336 531.381C96.2863 527.069 88.7094 521.376 85.4988 518.73C80.6087 514.698 78.9859 513.915 75.4988 513.903C69.9805 513.883 60.0357 511.483 54.1137 508.742C46.2715 505.112 35.8323 493.879 30.9858 483.854C24.2146 469.849 23.7122 461.74 29.5252 460.281C34.4248 459.051 44.8797 461.594 54.3363 466.316C69.8988 474.087 77.4732 482.501 84.3303 499.633C87.3358 507.143 89.004 509.765 93.8707 514.632C97.1146 517.876 101.789 521.981 104.259 523.754L108.749 526.979L104.352 518.698C101.934 514.144 96.8278 502.767 93.0051 493.417C89.1823 484.067 85.3244 474.73 84.432 472.667L82.8095 468.917L85.5729 468.895C87.0928 468.883 90.268 467.997 92.6291 466.925C97.5602 464.687 97.2067 464.236 98.8861 474.917C102.975 500.927 117.979 527.915 143.624 555.395C147.229 559.257 149.835 561.517 149.415 560.417C148.995 559.317 146.964 553.242 144.901 546.917C140.033 531.991 139.328 530.782 130.405 522.034C121.189 512.999 117.774 507.791 114.266 497.417C110.75 487.02 109.74 471.938 112.237 467.108C115.373 461.044 121.554 464.127 130.452 476.193C136.219 484.011 138.578 490.798 141.483 507.917C146.144 535.392 149.25 545.16 157.927 559.633C172.985 584.752 190.21 601.941 217.662 619.24C230.151 627.11 244.58 633.522 266.524 640.953C283.784 646.798 286.009 647.961 294.336 655.484L298.336 659.098L290.336 658.545C283.455 658.069 272.184 655.751 265.336 653.402C263.184 652.664 283.685 666.458 303.899 679.349C318.822 688.865 334.187 699.92 350.086 712.579C356.549 717.725 361.836 721.694 361.836 721.399C361.836 720.073 350.097 701.59 342.791 691.414C332.855 677.574 315.172 657.248 303.152 645.851C298.184 641.139 284.751 629.478 273.303 619.938C242.827 594.542 228.885 580.078 218.666 563.258C214.902 557.061 210.482 547.917 211.252 547.917C211.441 547.917 213.543 550.505 215.923 553.667C226.849 568.184 245.737 585.311 275.576 607.757C312.489 635.523 335.748 659.479 358.744 693.417C363.589 700.567 368.325 707.922 369.268 709.76C370.212 711.599 371.141 712.946 371.334 712.753C371.526 712.561 370.2 706.933 368.386 700.247C357.47 660.008 339.993 627.121 314.226 598.331C298.744 581.032 268.186 557.646 239.745 541.331C210.792 524.721 192.141 509.434 168.479 482.917L161.787 475.417L162.405 482.917C163.888 500.894 168.438 517.14 176.535 533.374C183.881 548.102 190.291 556.471 206.82 572.917C215.388 581.442 223.724 590.217 225.343 592.417C226.963 594.617 232.124 600.412 236.813 605.295L245.336 614.172L237.234 610.108C216.678 599.797 192.304 579.63 178.903 561.846C162.618 540.234 152.683 514.939 149.778 487.689C148.785 478.38 148.78 474.152 149.754 467.189C151.35 455.776 153.143 451.917 156.849 451.917C159.181 451.917 161.227 453.827 169.437 463.667C182.527 479.356 202.462 499.677 212.43 507.493C216.882 510.984 232.182 521.106 246.43 529.986C298.136 562.212 324.818 585.699 346.326 617.917C366.944 648.804 381.312 687.663 389.219 733.917C390.582 741.892 391.974 751.792 392.313 755.917C392.651 760.042 393.153 764.88 393.428 766.667C393.702 768.455 393.569 769.865 393.132 769.801C392.694 769.737 386.248 763.549 378.807 756.051ZM212.249 657.059C213.076 655.721 199.891 653.907 190.144 654.018C182.284 654.108 181.767 654.222 185.336 655.08C195.109 657.431 211.284 658.62 212.249 657.059ZM166.285 614.966C164.583 613.265 151.935 608.937 135.286 604.359C126.32 601.894 117.39 599.211 115.442 598.397C109.825 596.05 109.881 596.703 115.566 599.837C128.331 606.875 141.706 611.552 157.336 614.442C166.264 616.093 167.484 616.165 166.285 614.966ZM131.82 505.375C128.303 496.524 125.935 491.845 125.876 493.632C125.766 496.992 133.768 516.189 134.49 514.296C134.725 513.679 133.523 509.664 131.82 505.375ZM76.9634 504.167C75.2003 500.896 59.4634 485.807 52.6359 480.841C48.8961 478.121 45.8363 476.076 45.8363 476.296C45.8363 476.865 76.8008 505.917 77.4069 505.917C77.6818 505.917 77.4822 505.13 76.9634 504.167ZM431.251 766.667C431.53 764.88 432.04 759.817 432.386 755.417C433.166 745.499 438.087 717.784 441.442 704.417C451.926 662.645 467.677 629.781 491.314 600.359C510.412 576.588 534.365 556.895 572.739 533.417C615.873 507.027 626.161 498.303 656.061 462.758C664.418 452.822 665.536 451.849 668.291 452.12C672.075 452.491 673.359 454.98 674.923 464.971C676.298 473.756 675.621 488.843 673.313 500.844C667.713 529.958 651.468 559.611 629.711 580.432C616.29 593.275 607.573 599.483 588.336 609.898L580.336 614.23L588.375 605.823C592.796 601.2 598.719 594.267 601.536 590.417C604.353 586.567 610.186 580.332 614.497 576.561C640.585 553.745 656.378 525.366 661.323 492.417C662.149 486.917 662.825 480.842 662.826 478.917L662.827 475.417L657.119 481.917C632.947 509.446 618.292 521.566 585.543 541.113C547.746 563.673 524.904 581.564 506.299 603.182C485.004 627.924 471.784 651.996 460.459 686.648C456.186 699.721 452.398 713.688 453.396 712.691C453.632 712.454 456.799 707.571 460.433 701.839C471.706 684.057 486.652 665.115 501.29 650.057C517.786 633.086 530.106 622.287 549.336 607.943C582.326 583.333 591.545 574.908 612.83 549.917C617.393 544.559 605.532 565.862 599.467 573.917C591.018 585.138 571.234 604.267 550.86 620.914C525.936 641.279 519.764 647.005 505.653 662.85C488.095 682.567 473.948 701.565 465.766 716.417C463.37 720.768 462.993 721.976 464.398 720.811C485.049 703.685 505.912 688.776 535.402 670.069C563.826 652.039 563.012 652.756 551.857 655.569C546.805 656.842 538.996 658.171 534.504 658.522C525.189 659.25 525.133 659.648 535.548 651.141C541.138 646.575 543.389 645.548 557.98 640.902C594.198 629.371 618.962 614.923 641.854 591.967C652.626 581.167 653.787 579.606 659.758 567.917C670.802 546.296 676.944 538.418 688.78 530.691C694.333 527.066 697.02 525.897 699.288 526.119C702.111 526.395 702.359 526.735 702.646 530.73C703.571 543.573 690.347 564.891 675.457 574.56C671.54 577.103 666.948 580.136 665.253 581.3C663.557 582.465 658.111 588.162 653.149 593.962C648.188 599.761 641.708 606.623 638.75 609.212C635.791 611.8 634.006 613.917 634.782 613.917C637.786 613.917 662.767 600.826 671.067 594.902C690.379 581.118 708.478 557.297 712.978 539.741L714.193 534.999L715.985 538.708C716.97 540.748 718.489 543.384 719.36 544.565C720.856 546.593 720.645 547.289 715.566 557.106L710.188 567.499L721.157 561.279C728.199 557.285 735.027 554.278 740.231 552.877C744.689 551.678 749.525 550.085 750.978 549.337C753.82 547.875 759.014 541.814 760.82 537.854C761.826 535.648 762.563 535.405 768.633 535.284C772.497 535.208 777.97 534.255 781.554 533.034C788.61 530.632 791.901 530.383 793.636 532.117C798.687 537.169 786.829 548.398 771.336 553.234C768.586 554.092 762.511 555.548 757.836 556.469C736.366 560.7 714.74 572.59 685.328 596.337C679.824 600.781 672.226 606.422 668.443 608.873C664.661 611.323 662.083 613.5 662.715 613.71C664.812 614.409 680.258 610.828 685.336 608.466C688.086 607.186 694.825 602.273 700.311 597.547C715.039 584.863 725.791 579.73 741.273 577.991C751.298 576.865 758.594 577.597 759.799 579.848C761.316 582.682 757.931 587.896 748.373 597.45C741.153 604.667 737.627 607.337 730.836 610.726C721.303 615.485 710.745 617.911 699.498 617.928C690.103 617.942 667.159 620.403 653.303 622.882C626.281 627.718 601.82 637.833 583.586 651.713C580.973 653.701 578.836 655.603 578.836 655.938C578.836 656.697 593.093 654.307 597.836 652.753C599.761 652.123 606.325 649.043 612.422 645.91C627.998 637.906 634.585 636.416 654.336 636.425C668.082 636.431 671.339 636.747 677.454 638.664C681.369 639.891 685.135 641.573 685.822 642.401C689.62 646.977 673.207 657.7 654.124 663.111C644.999 665.698 624.866 666.211 608.836 664.263C590.771 662.069 572.282 665.653 553.028 675.08C535.312 683.755 495.234 711.647 472.336 731.237C467.936 735.001 457.044 745.245 448.132 753.999C439.221 762.754 431.663 769.917 431.337 769.917C431.012 769.917 430.973 768.455 431.251 766.667ZM631.836 653.445C637.611 652.656 644.361 651.32 646.836 650.477L651.336 648.942L641.678 649.397C636.366 649.647 628.716 650.594 624.678 651.501C609.527 654.904 613.416 655.96 631.836 653.445ZM715.115 603.417C721.076 601.054 732.065 594.813 731.412 594.16C730.854 593.602 705.895 605.014 705.195 606.146C704.467 607.324 707.051 606.613 715.115 603.417ZM671.955 566.667C674.557 563.649 681.213 554.025 682.848 550.917C686.321 544.318 677.183 555.478 670.361 566.167C668.245 569.483 669.255 569.8 671.955 566.667ZM411.496 732.917C411.147 731.542 409.722 725.242 408.329 718.917C398.418 673.901 381.671 634.798 358.436 602.417C336.038 571.203 309.992 549.897 251.464 514.911C221.287 496.872 205.78 484.016 187.512 461.893C172.835 444.117 171.715 442.908 167.913 440.719L164.107 438.529L163.434 426.421C162.14 403.12 165.953 380.607 173.862 364.854C184.527 343.612 193.723 334.733 233.336 307.424C266.156 284.8 279.548 272.989 287.736 259.449C297.908 242.626 303.564 210.809 299.295 194.419C298.447 191.164 292.832 178.301 286.818 165.834C269.828 130.619 266.175 117.559 267.135 95.4546C269.239 46.978 301.756 9.56153 348.763 1.52832C360.564 -0.488411 369.225 -0.50651 382.454 1.45792C416.072 6.44962 442.503 23.8858 454.777 49.1673C463.269 66.6603 467.545 85.8708 466.611 102.337C466.167 110.156 464.846 114.498 461.208 120.087C458.735 123.887 459.997 127.31 470.917 146.417C484.236 169.725 487.258 176.102 486.47 179.24C485.6 182.706 483.728 183.577 473.206 185.412C467.369 186.43 463.696 187.613 462.424 188.885C460.653 190.657 460.597 191.269 461.74 196.378C462.872 201.435 462.806 202.235 461.02 205.179C459.724 207.316 459.222 209.491 459.545 211.573C459.896 213.829 459.397 215.593 457.796 217.758C455.48 220.891 455.382 221.677 455.85 233.434C456.166 241.383 454.754 245.126 449.898 249.212C443.824 254.323 439.767 254.641 410.279 252.318C402.759 251.725 402.036 251.842 399.452 254.064C395.52 257.447 393.836 265.439 393.144 284.004C392.676 296.57 392.89 301.061 394.25 307.174C397.067 319.836 400.888 323.66 426.998 339.945C457.336 358.866 470.061 371.396 480.796 392.917C488.378 408.12 492.968 421.698 496.863 440.453C499.861 454.892 502.718 475.992 503.48 489.336L504.142 500.936L511.456 485.871C519.157 470.007 522.56 464.086 540.022 436.156C545.958 426.662 551.892 416.762 553.209 414.156C559.358 401.987 564.628 376.397 563.496 364.209C562.896 357.744 560.398 351.637 557.156 348.706C556.115 347.764 553.03 345.964 550.3 344.706C545.491 342.489 544.566 342.426 520.685 342.701C492.437 343.027 485.772 342.128 474.204 336.435C465.618 332.209 456.574 323.083 452.099 314.128C450.453 310.833 447.842 306.48 446.297 304.455C444.245 301.765 443.366 299.292 443.033 295.272C442.182 285.016 443.841 283.782 468.928 276.007C488.774 269.856 497.929 266.401 508.585 261.044C517.755 256.433 520.956 253.114 523.385 245.698C526.626 235.803 530.505 229.456 537.061 223.323C546.724 214.285 558.076 209.481 587.707 201.894L592.078 200.775L591.474 195.096C590.068 181.875 588.62 148.851 589.069 140.258C589.347 134.942 590.096 130.309 590.818 129.439C594.173 125.396 597.663 128.627 610.779 147.917C615.827 155.342 620.234 161.327 620.573 161.216C620.912 161.105 622.693 155.48 624.532 148.716C629.215 131.494 632.706 121.27 634.38 119.881C637.257 117.494 640.417 119.587 643.09 125.65C647.297 135.197 659.424 165.812 662.746 175.275C669.404 194.237 673.441 214.621 674.758 235.917C675.409 246.441 676.06 249.847 678.874 257.458L682.218 266.498L679.791 271.458C676.613 277.954 676.566 286.594 679.676 292.64C682.627 298.374 687.206 303.414 690.832 304.915C694.302 306.353 694.333 306.484 692.336 311.263C688.447 320.572 691.688 333.961 699.545 341.043C702.346 343.569 703.784 345.827 704.283 348.484C707.07 363.341 720.144 402.202 727.927 418.765C731.486 426.34 732.327 428.905 731.063 428.336C730.113 427.908 726.434 427.302 722.886 426.988L716.437 426.417L712.544 417.417C703.67 396.896 694.431 367.061 686.843 334.417C680.68 307.908 673.373 282.175 666.822 263.917C662.464 251.771 661.913 249.264 661.326 238.917C659.842 212.775 655.92 195.008 645.884 168.97C641.973 158.823 638.592 150.34 638.371 150.119C638.149 149.897 637.524 151.448 636.981 153.566C629.248 183.76 624.668 200.47 623.38 203.185C621.375 207.408 617.985 209.327 609.836 210.851C599.506 212.782 580.168 217.728 569.836 221.081C558.035 224.911 550.047 229.044 545.299 233.776C541.094 237.966 540.06 239.785 535.836 250.419C530.433 264.021 528.452 266.1 514.257 273.074C507.405 276.44 495.642 281.322 488.117 283.922C473.677 288.912 474.057 288.617 471.96 296.463C471.365 298.688 469.322 302.327 467.419 304.549L463.96 308.591L465.744 311.504C468.77 316.443 476.656 322.936 483.657 326.253L490.336 329.417L515.836 329.173C544.388 328.899 550.567 329.611 559.122 334.158C565.997 337.813 570.198 342.331 573.735 349.872C576.156 355.033 576.334 356.387 576.301 369.417C576.233 396.3 570.447 413.891 552.572 441.567C534.856 468.997 524.104 488.678 516.739 507.157C512.647 517.423 505.458 540.873 506.181 541.596C506.392 541.807 511.839 538.209 518.284 533.601C524.73 528.993 543.578 517.065 560.17 507.094C576.761 497.123 593.036 486.867 596.336 484.304C604.711 477.798 622.99 459.126 631.337 448.55C636.026 442.609 638.446 440.232 638.669 441.348C638.852 442.264 638.279 447.576 637.396 453.151C635.517 465.016 635.535 464.986 620.234 480.274C607.915 492.582 597.613 500.614 583.836 508.651C527.326 541.618 508.733 554.833 486.738 577.662C474.406 590.462 464.075 603.537 455.975 616.596C438.38 644.966 424.546 679.856 416.396 716.417C411.664 737.64 412.22 735.769 411.496 732.917ZM423.803 649.306C436.606 619.121 455.333 590.567 476.853 568.417L484.625 560.417L486.184 551.417C492.226 516.532 491.585 481.87 484.237 446.072C479.072 420.915 472.256 402.838 462.267 387.814C453.294 374.316 442.685 365.437 414.836 348.117C388.472 331.72 382.453 323.566 379.648 300.447C378.851 293.874 378.868 287.863 379.712 277.947C381.772 253.737 384.859 246.01 394.321 241.381C400.936 238.145 406.206 237.873 423.837 239.858C434.679 241.078 436.737 241.074 439.337 239.825L442.336 238.386V227.364C442.336 218.553 442.687 215.805 444.086 213.665C445.049 212.192 445.836 209.381 445.836 207.417C445.836 205.454 446.489 202.85 447.287 201.632C448.431 199.884 448.524 198.47 447.726 194.92C446.419 189.108 448.028 183.124 451.984 179.078C454.948 176.046 462.297 172.917 466.455 172.917C467.7 172.917 468.941 172.557 469.213 172.117C469.485 171.676 466.082 165.039 461.65 157.367C444.942 128.443 443.998 124.757 449.971 111.748C453.079 104.978 453.319 103.74 453.112 95.5678C452.844 85.0081 449.159 68.7905 444.885 59.365C438.449 45.1702 429.162 34.9656 415.23 26.7787C398.927 17.198 382.932 13.4205 361.836 14.168C350.224 14.5795 347.008 15.0814 338.836 17.7582C305.422 28.7034 283.544 56.9596 280.238 93.4393C279.437 102.275 281.162 115.642 284.474 126.282C285.868 130.756 291.534 143.867 297.066 155.417C302.598 166.967 308.408 179.913 309.976 184.185C315.423 199.02 315.505 216.395 310.23 237.782C302.212 270.287 289.149 285.61 242.336 317.426C204.159 343.372 194.228 353.019 184.815 373.299C179.249 385.291 177.606 393.751 177.069 413.17L176.605 429.922L181.086 434.17C183.551 436.506 188.987 442.775 193.167 448.101C202.861 460.451 220.04 477.705 230.367 485.462C234.784 488.78 245.809 495.936 254.867 501.365C318.913 539.753 343.679 559.846 368.567 593.616C382.928 613.103 397.151 640.154 406.912 666.549L412.138 680.68L415.873 669.937C417.927 664.029 421.496 654.745 423.803 649.306ZM108.836 565.793C104.161 565.327 96.0096 564.502 90.7214 563.958C85.4332 563.415 77.4617 561.819 73.0069 560.411C60.0471 556.318 46.0394 545.857 41.2342 536.684C39.9398 534.214 39.9855 533.768 41.7105 532.043C48.5567 525.197 78.1739 530.34 94.5338 541.216C102.307 546.384 114.061 556.888 118.883 562.977C122.491 567.532 123.492 567.251 108.836 565.793ZM726.857 543.667C721.674 541.019 719.05 537.743 717.785 532.34C716.638 527.445 718.177 519.185 721.439 512.729L723.807 508.041L718.466 510.487C695.147 521.162 679.358 508.266 690.556 487.691C695.161 479.23 701.213 475.796 711.633 475.731C717.89 475.692 717.92 475.678 716.35 473.555C709.494 464.281 707.394 449.217 711.809 440.968C714.826 435.331 723.453 433.116 729.737 436.366C733.183 438.148 738.443 444.025 740.553 448.451L742.127 451.751L744.232 447.584C745.516 445.041 747.724 442.675 749.896 441.511C757.05 437.681 762.178 442.091 762.279 452.162C762.31 455.321 762.436 457.908 762.557 457.912C762.678 457.915 764.703 456.564 767.057 454.911C769.411 453.257 773.814 451.387 776.841 450.755C781.759 449.73 782.851 449.83 787.065 451.694C793.019 454.328 795.827 458.657 795.833 465.207C795.843 473.648 791.075 480.227 780.946 485.767L775.57 488.706L780.441 490.861C789.181 494.727 792.84 499.675 792.831 507.618C792.813 524.509 769.685 533.338 756.836 521.358L754.336 519.027V526.222C754.336 535.478 751.943 539.689 744.602 543.347C738.197 546.539 732.671 546.639 726.857 543.667ZM742.177 534.864C746.037 531.827 747.301 525.954 745.908 517.519C744.688 510.133 742.923 505.549 742.867 509.622C742.827 512.483 738.348 524.821 736.817 526.287C735.91 527.155 735.791 525.21 736.307 517.917C736.677 512.692 737.224 507.517 737.523 506.417C737.942 504.874 737.213 505.216 734.329 507.917C729.234 512.689 725.858 520.114 725.846 526.579C725.837 531.12 726.206 532.051 728.913 534.329C732.778 537.58 738.434 537.809 742.177 534.864ZM776.454 517.004C781.579 514.676 783.836 511.552 783.836 506.784C783.836 502.033 779.878 498.521 772.816 497.007C767.007 495.761 757.803 495.551 757.904 496.667C757.94 497.08 760.892 499.829 764.462 502.776C768.032 505.722 770.713 508.374 770.419 508.668C769.793 509.294 757.929 505.151 756.062 503.654C753.325 501.459 754.013 503.828 757.606 508.971C761.7 514.832 766.915 518.93 770.234 518.895C771.39 518.883 774.189 518.032 776.454 517.004ZM712.836 504.726C716.116 503.53 725.836 497.667 725.836 496.885C725.836 496.55 722.071 496.474 717.469 496.715C712.63 496.969 708.848 496.745 708.501 496.184C707.957 495.303 723.593 489.874 726.586 489.905C729.201 489.931 727.674 488.07 723.814 486.525C712.792 482.115 706.495 482.568 701.103 488.158C693.99 495.532 694.106 504.444 701.336 506.195C703.651 506.756 709.222 506.044 712.836 504.726ZM775.572 479.876C782.607 476.413 786.846 471.348 786.821 466.435C786.803 462.825 786.088 461.613 783.028 460.001C778.138 457.424 768.892 461.725 761.396 470.062C753.383 478.975 753.69 479.513 763.869 474.401C768.897 471.876 773.535 469.985 774.174 470.2C774.813 470.415 772.278 473.651 768.541 477.392L761.745 484.194L765.516 483.582C767.59 483.245 772.115 481.578 775.572 479.876ZM728.825 472.625C727.781 470.264 726.653 466.327 726.318 463.875L725.71 459.417L728.824 462.917C730.536 464.842 733.152 468.329 734.637 470.666C736.122 473.002 737.736 474.915 738.226 474.916C739.564 474.919 738.171 465.432 735.775 458.233C733.13 450.286 728.393 444.917 724.025 444.917C714.681 444.917 716.001 462.065 726.204 473.203C728.075 475.246 729.858 476.917 730.165 476.917C730.472 476.917 729.869 474.986 728.825 472.625ZM751.925 468.167C754.827 460.69 755.774 448.917 753.472 448.917C750.169 448.917 748.412 453.785 747.999 464.079C747.538 475.556 748.619 476.682 751.925 468.167ZM73.3363 460.421C68.5163 458.724 64.1609 453.837 62.7289 448.518C61.4261 443.68 62.8763 437.061 66.4267 431.64L68.9006 427.863L66.1184 428.64C64.5882 429.068 60.341 429.372 56.6801 429.317C48.6256 429.196 42.3618 426.006 37.7912 419.696C25.4961 402.724 39.6357 387.342 60.0899 395.44C61.504 396 61.2621 395.029 58.8399 390.424C55.3932 383.872 54.8808 377.14 57.3744 371.172C59.5238 366.028 61.576 363.991 67.3363 361.285C80.0221 355.327 91.7724 361.626 95.0718 376.153L96.371 381.874L100.671 376.881C106.224 370.436 111.697 367.63 118.927 367.523C129.023 367.375 135.979 374.696 135.979 385.471C135.979 392.306 133.041 397.75 125.875 404.193L120.862 408.7L124.599 409.388C130.293 410.436 136.018 413.318 139.252 416.765C141.55 419.214 142.265 421.043 142.626 425.39C143.668 437.96 133.649 449.095 122.627 447.616C117.656 446.949 108.867 442.675 105.459 439.268L102.836 436.645L102.83 440.531C102.818 449.413 97.9748 457.708 91.1336 460.566C86.9911 462.297 78.4667 462.228 73.3363 460.421ZM88.2468 452.519C92.7242 450.648 95.3693 444.066 94.5212 436.905C94.1956 434.155 93.4885 431.121 92.95 430.162C92.0428 428.546 91.9256 428.565 91.3565 430.417C90.1187 434.448 85.5638 442.917 84.6342 442.917C84.108 442.917 83.9101 441.68 84.1945 440.167C85.5078 433.184 85.9176 425.917 84.998 425.917C82.8962 425.917 74.0791 433.886 72.501 437.212C70.5293 441.367 70.3384 446.879 72.0863 449.183C75.3937 453.543 82.3559 454.981 88.2468 452.519ZM127.369 438.72C129.976 437.533 133.345 432.243 133.935 428.412C135.056 421.135 129.892 417.771 116.586 417.108C111.774 416.869 107.837 417.065 107.838 417.545C107.839 418.025 109.752 419.657 112.088 421.172C117.862 424.916 121.236 427.851 120.551 428.536C120.239 428.848 116.791 428.096 112.889 426.865C108.987 425.633 105.525 424.896 105.195 425.225C104.234 426.187 110.591 433.603 114.388 435.95C117.397 437.809 121.72 439.548 124.039 439.831C124.426 439.879 125.924 439.379 127.369 438.72ZM69.8363 419.192L73.3363 417.712L67.3363 415.999C64.0363 415.057 59.7613 413.416 57.8363 412.352L54.3363 410.417L63.8363 409.917L73.3363 409.417L65.6629 405.553C57.142 401.262 50.419 400.019 45.8861 401.897C40.4991 404.128 40.7071 410.722 46.3423 416.357C51.7831 421.798 61.0319 422.914 69.8363 419.192ZM113.657 402.849C120.353 399.503 126.365 393.341 127.362 388.8C129.605 378.59 120.81 372.812 111.411 378.321C108.673 379.925 105.888 382.68 104.35 385.304C101.571 390.047 98.3363 398.751 99.0778 399.492C99.3344 399.749 102.872 397.517 106.94 394.533C111.008 391.548 114.482 389.247 114.66 389.419C115.341 390.076 111.446 396.617 107.665 401.167C104.384 405.115 104.038 405.917 105.617 405.917C106.662 405.917 110.28 404.537 113.657 402.849ZM77.8632 390.814C76.7561 386.196 75.8472 381.983 75.8433 381.453C75.8296 379.573 78.7739 383.521 83.2021 391.319L87.689 399.22L88.3962 395.45C88.7851 393.377 88.8383 388.842 88.5144 385.373C87.432 373.782 83.4284 367.917 76.5981 367.917C65.5808 367.917 60.6518 378.411 66.9114 388.539C68.9925 391.906 78.6708 400.416 79.4889 399.598C79.7019 399.385 78.9703 395.432 77.8632 390.814ZM762.011 441.167C760.343 438.555 758.658 435.067 758.267 433.417C756.974 427.966 754.744 424.754 745.391 414.872C732.091 400.821 726.866 389.662 725.279 371.917C724.683 365.255 724.837 364.138 726.656 361.917L728.705 359.417L733.332 361.839C740.15 365.407 751.21 377.746 755.25 386.293C759.222 394.696 760.504 400.207 761.339 412.466C761.678 417.442 762.753 424.642 763.728 428.466L765.501 435.417L767.274 429.917C768.456 426.252 769.216 419.864 769.552 410.767C770.089 396.266 768.836 386.899 764.687 374.417C761.54 364.948 753.175 348.6 747.257 340.351C744.276 336.196 741.836 332.622 741.836 332.41C741.836 332.198 744.357 333.35 747.438 334.971C751.802 337.267 754.342 337.917 758.938 337.917C764.714 337.917 764.836 337.974 764.802 340.667C764.762 343.815 770.016 362.917 770.922 362.917C771.25 362.917 772.09 361.005 772.788 358.667C773.485 356.33 775.356 351.543 776.946 348.029C779.681 341.984 779.836 340.906 779.836 327.961C779.836 312.674 780.979 307.235 785.781 299.665C789.023 294.553 793.937 290.927 797.632 290.921C798.894 290.919 801.085 292.075 802.5 293.49C804.772 295.763 805.02 296.685 804.629 301.409L804.185 306.755L806.773 303.985C809.901 300.637 814.197 298.316 818.898 297.434C821.619 296.923 822.992 297.252 825.113 298.921C827.509 300.805 827.835 301.745 827.827 306.74C827.803 320.924 818.289 330.536 796.481 338.41C786.843 341.89 782.727 347.369 778.311 362.595C775.468 372.397 775.036 377.945 776.28 388.652L777.121 395.886L780.589 388.152C782.496 383.898 784.501 378.617 785.043 376.417C785.586 374.217 786.442 370.77 786.946 368.758C790.173 355.873 809.711 342.329 817.607 347.503C819.856 348.977 820.035 349.593 819.506 354.059C818.786 360.134 814.602 368.038 809.936 372.135C808.006 373.829 803.932 376.292 800.882 377.609C790.669 382.018 790.498 382.164 787.681 388.947C786.203 392.506 782.95 403.093 780.451 412.475C777.953 421.857 774.561 432.844 772.914 436.89C768.56 447.591 766.603 448.358 762.011 441.167ZM812.056 321.111C816.225 317.356 820.44 309.703 819.329 307.906C818.169 306.028 816.057 306.931 812.868 310.667C809.847 314.207 801.836 326.414 801.836 327.477C801.836 328.551 808.188 324.595 812.056 321.111ZM790.579 322.097C792.217 321.057 796.836 307.392 796.836 303.587C796.836 300.621 796.826 300.616 794.73 302.512C791.438 305.489 788.717 311.669 788.111 317.545C787.569 322.796 788.059 323.698 790.579 322.097ZM49.3363 442.328C47.1363 441.008 41.7363 438.533 37.3363 436.828C24.8967 432.007 13.7379 425.849 9.14748 421.27C4.10646 416.242 -0.396738 407.757 0.0277917 404.085C0.308942 401.654 0.766968 401.39 5.19532 401.108C9.07231 400.861 11.5214 401.496 17.313 404.246C24.0638 407.452 24.6216 407.959 25.2858 411.5C27.5882 423.773 38.6199 434.017 52.1853 436.479C55.8259 437.139 56.0019 437.339 55.4353 440.172C55.1058 441.82 54.8363 443.561 54.8363 444.042C54.8363 445.327 53.7901 445.001 49.3363 442.328ZM781.047 442.128L777.757 441.785L782.969 436.101C785.835 432.975 790.548 426.795 793.441 422.367C798.937 413.958 806.373 406.243 811.577 403.552C813.257 402.683 816.721 401.503 819.275 400.931C828.022 398.971 829.985 402.689 825.226 412.201C821.306 420.034 814.591 425.726 800.953 432.775C794.324 436.202 788.636 439.433 788.313 439.956C787.279 441.629 784.43 442.48 781.047 442.128ZM37.8363 383.417C35.9705 381.492 33.9697 379.917 33.3901 379.917C32.8105 379.916 29.6363 378.636 26.3363 377.073C16.5118 372.418 8.7078 361.795 8.47074 352.754C8.34458 347.942 9.88349 346.454 14.7838 346.65C25.7327 347.086 38.1039 357.569 41.8024 369.543C42.921 373.165 43.8363 376.693 43.8363 377.383C43.8363 378.074 44.9613 380.296 46.3363 382.322C47.7113 384.348 48.8363 386.211 48.8363 386.462C48.8363 386.712 47.1246 386.917 45.0324 386.917C41.998 386.917 40.5424 386.209 37.8363 383.417ZM95.5863 361.478C94.0738 359.578 92.8438 357.438 92.8531 356.721C92.8621 356.004 95.0826 346.564 97.7872 335.744C103.606 312.463 105.189 302.573 104.687 292.635C104.351 285.968 103.919 284.684 99.9953 278.661C92.5332 267.208 91.466 259.958 96.0395 251.785C98.2695 247.8 104.209 243.917 108.075 243.917C111.076 243.917 116.409 247.414 119.244 251.241C120.913 253.493 121.336 255.525 121.336 261.282C121.336 268.02 121.043 268.997 116.929 275.959C112.641 283.214 112.51 283.69 112.129 293.417L111.736 303.417L114.905 297.917C118.629 291.453 122.592 284.894 127.047 277.818C130.066 273.025 130.297 271.987 130.905 260.534C131.377 251.645 132.089 247.14 133.536 243.883C137.669 234.581 144.995 228.917 152.896 228.917C156.252 228.917 157.666 229.547 160.357 232.239C164.392 236.273 165.562 241.427 164.063 248.571C162.097 257.945 156.765 263.488 141.027 272.519C137.767 274.39 130.952 284.075 122.101 299.417C118.53 305.607 111.836 319.445 111.836 320.637C111.836 320.88 115.404 317.859 119.763 313.922C125.979 308.31 128.075 305.696 129.469 301.82C133.075 291.79 140.633 285.983 150.136 285.939C152.776 285.927 156.283 286.614 157.93 287.466C164.451 290.838 166.641 299.46 162.859 306.873C159.017 314.404 151.669 317.466 139.45 316.628C128.93 315.907 126.523 316.978 116.886 326.667C108.337 335.262 105.153 340.891 101.757 353.417C98.3639 365.933 98.7414 365.44 95.5863 361.478ZM151.219 307.962C152.601 307.437 154.486 305.855 155.409 304.447C161.256 295.523 150.385 288.849 142.688 296.637L139.94 299.417L142.016 304.167C144.229 309.233 145.978 309.954 151.219 307.962ZM111.961 268.017C116.233 264.558 114.142 254.015 108.913 252.648C105.985 251.882 102.03 255.367 101.278 259.374C99.7019 267.778 105.982 272.859 111.961 268.017ZM151.758 255.776C158.277 249.702 158.451 236.907 152.015 236.921C146.817 236.933 139.808 245.412 139.859 251.628C139.876 253.746 140.658 254.822 143.109 256.097C147.458 258.361 149.047 258.302 151.758 255.776ZM48.4677 356.332C44.1215 344.644 39.6259 340.511 26.8363 336.442C15.4117 332.807 7.35565 326.74 3.22701 318.661C-3.25183 305.984 0.66184 294.969 10.6218 297.848C14.8595 299.073 20.4638 302.548 22.1991 305.025C23.4136 306.759 23.5516 306.36 23.4789 301.33C23.4063 296.306 23.7117 295.421 26.28 293.212C33.1404 287.311 43.5526 295.659 47.4112 310.153C48.2925 313.464 48.8169 320.623 48.8244 329.445C48.8334 340.491 49.1662 343.943 50.3884 345.688C51.2421 346.907 53.012 350.327 54.3215 353.288L56.7023 358.672L53.9874 361.273L51.2725 363.874L48.4677 356.332ZM27.1358 327.667C26.6959 326.98 24.1465 323.042 21.4704 318.917C14.5126 308.193 8.83629 303.836 8.83629 309.222C8.83629 313.337 14.2654 320.371 20.821 324.748C27.511 329.216 28.3851 329.62 27.1358 327.667ZM40.413 320.667C40.1592 319.43 39.663 316.638 39.3104 314.464C38.5769 309.941 35.7199 303.896 33.4094 301.978C32.109 300.899 31.8179 300.91 31.7303 302.045C31.1342 309.766 36.2989 322.917 39.9268 322.917C40.448 322.917 40.6667 321.905 40.413 320.667ZM118.842 355.803C118.859 345.378 127.074 333.917 134.53 333.917C137.957 333.917 141.836 338.162 141.836 341.912C141.836 349.852 133.782 357.141 123.443 358.558L118.836 359.189L118.842 355.803ZM62.4105 352.25C60.9769 348.514 60.6254 338.812 61.7603 334.305C65.151 320.839 75.0117 318.386 80.115 329.738C82.2979 334.594 82.966 343.107 81.5615 348.167C80.8585 350.7 80.4022 350.917 75.7851 350.917C73.0279 350.917 69.1565 351.592 67.182 352.417C62.8027 354.247 63.1819 354.26 62.4105 352.25ZM709.336 338.546C699.167 333.85 695.553 320.486 701.791 310.65C703.416 308.088 705.666 305.416 706.791 304.714C709.795 302.837 709.343 302.259 704.333 301.572C696.198 300.457 689.193 295.647 686.903 289.602C685.347 285.497 685.599 278.221 687.429 274.363C689.144 270.749 695.584 266.91 699.902 266.927C701.241 266.932 704.604 267.993 707.375 269.283L712.413 271.629L712.014 265.372C711.243 253.264 716.267 246.567 726.192 246.468C735.443 246.377 741.286 253.187 742.562 265.548L743.127 271.028L746.232 268.023C757.514 257.105 774.031 261.776 776.394 276.553C777.613 284.175 770.741 293.093 760.975 296.562L756.074 298.302L760.761 300.474C779.403 309.111 777.507 332.983 758.185 332.895C755.518 332.883 751.519 332.048 749.298 331.039C745.566 329.344 736.836 320.753 736.836 318.777C736.836 316.304 735.105 318.485 733.943 322.421C730.339 334.629 718.15 342.617 709.336 338.546ZM721.062 328.954C723.845 326.765 727.223 319.512 728.299 313.417L729.005 309.417L725.987 313.568C720.463 321.163 718.969 320.752 721.834 312.425C724.274 305.331 724.302 305.917 721.532 305.917C718.177 305.917 710.198 311.318 708.391 314.811C705.97 319.493 706.369 325.541 709.291 328.463C712.332 331.504 717.544 331.722 721.062 328.954ZM763.836 322.917C764.936 321.817 765.836 319.859 765.836 318.565C765.836 315.354 761.868 309.709 758.457 308.069C756.082 306.927 744.784 304.772 744.12 305.334C744 305.435 745.463 307.712 747.37 310.393C752.702 317.894 751.543 319.212 744.49 313.667L740.356 310.417L742.346 313.482C745.62 318.524 747.189 320.359 750.221 322.695C754.034 325.633 761.007 325.746 763.836 322.917ZM710.66 291.391C704.34 288.147 701.51 285.917 703.712 285.917C704.258 285.917 707.952 286.6 711.92 287.435C715.888 288.27 719.314 288.773 719.533 288.554C720.335 287.752 709.215 278.651 705.181 276.807C696.944 273.042 691.228 279.098 695.066 287.523C696.83 291.393 704.866 294.908 711.836 294.858L717.336 294.819L710.66 291.391ZM759.3 289.479C765.459 286.466 768.255 282.84 768.121 278.041C767.935 271.355 760.3 267.967 754.126 271.831C751.109 273.719 741.413 285.828 742.249 286.664C742.461 286.875 745.175 285.615 748.281 283.862C751.386 282.109 754.158 280.905 754.439 281.187C754.721 281.468 752.84 284.29 750.26 287.458L745.57 293.217L749.765 292.654C752.073 292.344 756.364 290.915 759.3 289.479ZM734.194 279.167C735.258 272.732 734.897 263.998 733.421 260.466C731.108 254.93 726.025 253.325 721.755 256.782C718.418 259.484 718.63 266.547 722.291 274.667C723.841 278.105 725.443 280.917 725.85 280.917C726.257 280.917 726.384 279.005 726.131 276.667C725.878 274.33 726.106 271.292 726.636 269.917C727.51 267.652 727.822 268.143 729.968 275.158C731.271 279.415 732.615 282.903 732.955 282.908C733.296 282.913 733.854 281.23 734.194 279.167ZM62.3312 310.035C60.3404 296.759 53.9391 287.207 40.7795 277.877C29.2084 269.673 23.6393 263.679 19.4466 254.917C16.8204 249.429 16.3363 247.25 16.3363 240.917V233.417L19.2313 233.087C23.5939 232.589 35.9443 239.134 42.2388 245.279C48.6758 251.564 51.8602 257.554 55.3363 269.917C56.772 275.024 59.1049 281.487 60.5204 284.281C61.936 287.074 63.6548 290.948 64.34 292.889L65.586 296.417L66.3428 290.536C67.5532 281.129 66.2133 256.519 63.9587 246.747C61.6826 236.882 59.325 231.712 53.6154 224.067C44.226 211.494 40.5381 196.963 42.6708 180.944C43.9855 171.07 45.9641 165.455 48.6314 164.027C51.4203 162.535 56.2104 165.414 60.6843 171.273C72.2674 186.441 75.7772 203.979 70.3196 219.417C67.3728 227.753 67.3025 229.4 69.5231 238.066L71.2268 244.714L73.3826 236.566C74.5683 232.084 77.4546 223.027 79.7966 216.438C84.4652 203.305 84.3707 204.786 82.2395 178.161C80.6974 158.897 89.272 138.432 106.709 119.761C110.522 115.678 115.257 111.467 117.231 110.404C120.41 108.692 120.989 108.642 122.31 109.962C126.094 113.746 127.271 139.692 124.261 152.976C121.123 166.826 116.902 174.23 104.356 187.896C95.3922 197.659 93.1258 201.335 88.36 213.842C84.8436 223.07 79.8363 239.622 79.8363 242.018C79.8363 242.683 81.6908 240.345 83.9574 236.822C86.224 233.3 92.9195 225.467 98.8363 219.417C106.544 211.536 109.951 207.283 110.852 204.417C113.252 196.784 116.739 191.207 122.276 186.146C127.638 181.246 136.384 176.917 140.923 176.917C144.232 176.917 148.702 179.756 150.319 182.885C157.115 196.027 138.91 215.262 118.336 216.676C112.129 217.102 110.743 217.599 106.093 221.064C96.6722 228.085 83.4677 250.337 78.8832 266.917C76.2627 276.395 74.4701 295.992 75.2701 306.417L75.884 314.417L69.4537 314.534L63.0233 314.65L62.3312 310.035ZM61.7236 216.167C60.9038 208.592 58.0459 195.204 56.7606 192.917C55.6535 190.948 56.5555 200.235 58.4391 210.199C59.8306 217.561 61.3811 222.917 62.1204 222.917C62.3039 222.917 62.1254 219.88 61.7236 216.167ZM125.113 203.579C127.74 201.438 130.393 198.726 131.008 197.552C132.063 195.54 132.018 195.508 130.232 196.984C119.918 205.505 116.836 208.307 116.836 209.161C116.836 210.222 117.55 209.741 125.113 203.579ZM94.6666 184.667C97.5552 179.573 107.857 152.139 107.816 149.652C107.775 147.241 99.7975 162.572 95.9699 172.417C92.5625 181.181 90.2442 189.917 91.3258 189.917C91.5258 189.917 93.0292 187.555 94.6666 184.667ZM783.836 275.885C783.836 270.976 782.055 266.504 778.35 262.109C775.772 259.052 775.666 258.6 776.948 256.143C780.074 250.158 790.98 239.984 798.076 236.434C810.07 230.434 813.598 232.047 812.332 242.953C811.537 249.808 807.161 259.595 802.168 265.688C798.731 269.882 786.403 279.917 784.687 279.917C784.219 279.917 783.836 278.103 783.836 275.885ZM544.473 266.281C542.561 264.369 541.836 262.613 541.836 259.892C541.836 255.052 544.376 252.01 549.04 251.264C552.242 250.751 553.156 251.083 555.79 253.717C558.005 255.932 558.836 257.703 558.836 260.204C558.836 264.786 554.806 268.917 550.336 268.917C548.183 268.917 546.232 268.04 544.473 266.281ZM750.427 248.514C746.816 241.133 735.302 230.267 730.123 229.354C728.04 228.987 721.749 226.914 716.143 224.748C704.352 220.193 697.748 214.796 693.447 206.201C688.943 197.201 690.16 193.917 697.999 193.917C710.931 193.917 724.577 203.979 730.336 217.761C731.809 221.286 734.18 224.076 739.336 228.353C743.186 231.547 747.124 235.055 748.086 236.149C751.213 239.705 750.185 235.538 744.744 222.601C736.796 203.706 734.333 199.468 726.171 190.649C721.982 186.122 716.827 180.251 714.716 177.604C704.673 165.008 699.573 144.231 701.807 125.011C703.265 112.469 704.319 109.917 708.042 109.917C710.532 109.917 712.61 111.436 719.329 118.167C729.668 128.524 738.525 141.895 742.388 152.982C745.309 161.361 745.329 161.57 745.349 184.417L745.369 207.417L749.085 215.716C751.129 220.28 754.025 227.93 755.519 232.716L758.237 241.417L759.572 234.917C760.79 228.984 760.734 227.895 758.933 222.417C754.339 208.449 754.318 197.38 758.865 185.845C762.936 175.516 772.051 164.246 776.777 163.697C782.578 163.023 786.5 176.296 785.6 193.551C784.96 205.814 782.841 211.658 774.514 224.117C768.34 233.354 765.263 240.622 764.167 248.556C763.637 252.394 763.331 252.739 759.966 253.295C753.597 254.348 753.18 254.139 750.427 248.514ZM769.257 213.263C770.926 206.434 772.292 190.338 770.937 193.465C769.806 196.077 767.161 209.759 766.404 216.917C765.685 223.712 767.168 221.812 769.257 213.263ZM734.861 180.195C732.83 172.712 720.7 146.827 720.086 148.667C719.922 149.16 722.019 155.732 724.747 163.27C733.979 188.785 739.868 198.639 734.861 180.195Z" fill="black"/>
</svg>
